<?xml version="1.0" encoding="iso-8859-1"?>
<!-- Generator: Adobe Illustrator 19.0.0, SVG Export Plug-In . SVG Version: 6.00 Build 0)  -->
<svg xmlns="http://www.w3.org/2000/svg" xmlns:xlink="http://www.w3.org/1999/xlink" version="1.1" id="Layer_1" x="0px" y="0px" viewBox="0 0 396.338 396.338" style="enable-background:new 0 0 396.338 396.338;" xml:space="preserve" width="512" height="512">
<g>
	<path style="fill:#9AD14B;" d="M134.345,172.389c-10.31,9.53-24.09,15.34-39.23,15.34c-4.64,0-9.15-0.56-13.47-1.59   c-2.2,11.31-7.69,21.44-15.45,29.35c-5.73,5.85-12.69,10.49-20.47,13.5c0,0.05,0.01,0.11,0.01,0.17c0,14.05-5.01,26.93-13.35,36.95   c-24.52-23.25-27.81-61.23-8.34-88.29c2.73-3.8,5.91-7.39,9.55-10.69l0.76-0.69c7.81-7.08,16.87-12,26.43-14.75   c20.33-5.88,42.95-1.99,60.71,11.68C125.635,166.559,129.925,169.569,134.345,172.389z"/>
	<path style="fill:#F95428;" d="M388.835,100.049c-4.26,118.37-101.55,213.03-220.96,213.03c-15.8,0-31.21-1.66-46.06-4.8   c-30.03-6.37-57.8-18.83-81.97-36.03c-2.67-1.9-5.16-3.95-7.46-6.14c8.34-10.02,13.35-22.9,13.35-36.95c0-0.06-0.01-0.12-0.01-0.17   c18.3-7.08,32.09-23.17,35.92-42.85c4.32,1.03,8.83,1.59,13.47,1.59c15.14,0,28.92-5.81,39.23-15.34   c27.46,17.52,60.07,27.67,95.06,27.67C299.565,200.059,360.195,159.239,388.835,100.049z"/>
	<path style="fill:#90BC42;" d="M45.725,228.989c0,0.05,0.01,0.11,0.01,0.17c0,14.05-5.01,26.93-13.35,36.95   c-24.52-23.25-27.81-61.23-8.34-88.29c2.73-3.8,5.91-7.39,9.55-10.69l0.76-0.69c7.81-7.08,16.87-12,26.43-14.75l0.37,1.75   c0,0-24,32,5,62c0.02,0.02,0.03,0.03,0.04,0.05C60.465,221.339,53.505,225.979,45.725,228.989z"/>
	<path style="fill:#E54728;" d="M121.815,308.279c-30.03-6.37-57.8-18.83-81.97-36.03c-2.67-1.9-5.16-3.95-7.46-6.14   c8.34-10.02,13.35-22.9,13.35-36.95c0-0.06-0.01-0.12-0.01-0.17c18.3-7.08,32.09-23.17,35.92-42.85c4.32,1.03,8.83,1.59,13.47,1.59   C95.115,187.729,58.055,275.319,121.815,308.279z"/>
	<path style="fill:#FFFFFF;" d="M229.405,230.559c-25.702,0-50.823-4.662-74.666-13.856c-3.865-1.49-5.79-5.831-4.3-9.696   c1.491-3.865,5.829-5.791,9.696-4.299c22.114,8.527,45.42,12.851,69.27,12.851c36.875,0,72.713-10.461,103.64-30.253   c1.078-0.69,2.146-1.388,3.208-2.098c3.445-2.301,8.102-1.377,10.403,2.066c2.303,3.443,1.378,8.101-2.065,10.403   c-1.146,0.766-2.298,1.519-3.46,2.263C307.786,219.279,269.151,230.559,229.405,230.559z"/>
	<circle style="fill:#FFFFFF;" cx="135.817" cy="199.954" r="7.5"/>
	<path style="fill:#333333;" d="M390.646,92.769c-3.445-0.855-7.014,0.818-8.559,4.012c-13.683,28.271-34.928,52.182-61.439,69.148   c-27.219,17.418-58.771,26.625-91.244,26.625c-37.76,0-73.491-12.146-103.33-35.125C96.948,135,56.257,136.455,29.32,160.888   l-0.76,0.689c-1.396,1.266-2.733,2.581-4.019,3.934c-7.415-12.676-18.262-41.138,2.626-78.593   c2.018-3.617,0.721-8.186-2.896-10.203c-3.62-2.018-8.186-0.72-10.203,2.897c-17.52,31.412-15.512,57.676-10.743,74.177   c3.241,11.216,8.158,19.548,11.518,24.361c-7.862,12.884-11.699,27.954-10.782,43.453c1.351,22.817,12.808,43.504,31.435,56.759   c38.813,27.617,84.59,42.215,132.38,42.215c59.608,0,116.031-22.812,158.874-64.233c42.735-41.316,67.447-96.727,69.583-156.024   C396.461,96.773,394.088,93.624,390.646,92.769z M19.035,220.716c-1.079-18.245,6.065-35.751,19.603-48.028l0.76-0.689   c11.324-10.271,25.698-15.458,40.181-15.458c13.083,0,26.253,4.232,37.343,12.772c1.521,1.171,3.061,2.308,4.609,3.427   c-7.881,4.871-16.987,7.49-26.412,7.49c-3.916,0-7.862-0.468-11.729-1.391c-1.984-0.476-4.083-0.117-5.802,0.989   s-2.911,2.866-3.301,4.873c-3.272,16.808-15.254,31.096-31.27,37.289c-2.89,1.118-4.795,3.897-4.795,6.995   c0,0.133,0.004,0.266,0.01,0.4c-0.04,8.714-2.35,17.24-6.619,24.72C24.209,244.63,19.766,233.066,19.035,220.716z M316.324,245.559   c-40.031,38.702-92.751,60.017-148.448,60.017c-44.655,0-87.424-13.637-123.683-39.437c-0.553-0.394-1.082-0.812-1.62-1.222   c6.038-9.228,9.661-19.894,10.481-30.937c16.22-7.792,28.678-22.166,34.12-39.237c2.643,0.325,5.297,0.489,7.943,0.489   c14.538,0,28.495-4.798,39.89-13.604c28.433,17.017,60.67,25.927,94.396,25.927c35.345,0,69.692-10.025,99.329-28.991   c18.987-12.151,35.492-27.576,48.804-45.475C369.246,175.718,348.126,214.813,316.324,245.559z"/>
</g>















</svg>
